<svg xmlns="http://www.w3.org/2000/svg" viewBox="0 0 1000 1000"><defs><style>.a{fill:#3ab0ff;}.b{fill:#ffb562;}</style></defs><path class="a" d="M527.78,419.78a19.45,19.45,0,0,1,13-36.67l255.51,90.48-7.46-172a62.15,62.15,0,0,0-62.14-62.14H273.32a62.15,62.15,0,0,0-62.14,62.14L197,629.26,530.57,747.4a19.45,19.45,0,0,1-13,36.68L195.19,669.91l-8.86,204a62.14,62.14,0,0,0,62.14,62.14H751.53A62.14,62.14,0,0,0,813.67,874L798.1,515.51Z"/><path class="b" d="M358.52,222.72a142.47,142.47,0,0,1,283,0h33.26a175.54,175.54,0,0,0-349.48,0Z"/></svg>